<mxfile host="app.diagrams.net" agent="Mozilla/5.0 (Macintosh; Intel Mac OS X 10_15_7) AppleWebKit/605.1.15 (KHTML, like Gecko) Version/18.1.1 Safari/605.1.15" version="26.0.3">
  <diagram name="Pagina-1" id="dRIK7dZF1G0qF2pXMRNZ">
    <mxGraphModel grid="1" page="1" gridSize="10" guides="1" tooltips="1" connect="1" arrows="1" fold="1" pageScale="1" pageWidth="827" pageHeight="1169" math="0" shadow="0">
      <root>
        <mxCell id="0" />
        <mxCell id="1" parent="0" />
        <mxCell id="2RzvqMP-yP-Pnqs9nKf0-1" value="&lt;font&gt;Driver&lt;/font&gt;" style="shape=folder;fontStyle=1;spacingTop=10;tabWidth=40;tabHeight=14;tabPosition=left;html=1;whiteSpace=wrap;fontSize=18;" vertex="1" parent="1">
          <mxGeometry x="80" y="40" width="160" height="120" as="geometry" />
        </mxCell>
        <mxCell id="2RzvqMP-yP-Pnqs9nKf0-2" value="&lt;font&gt;Model&lt;/font&gt;" style="shape=folder;fontStyle=1;spacingTop=10;tabWidth=40;tabHeight=14;tabPosition=left;html=1;whiteSpace=wrap;color=#808080;fillColor=#f5f5f5;fontColor=#333333;strokeColor=#666666;fontSize=18;" vertex="1" parent="1">
          <mxGeometry x="80" y="240" width="160" height="120" as="geometry" />
        </mxCell>
        <mxCell id="2RzvqMP-yP-Pnqs9nKf0-3" value="" style="endArrow=none;html=1;rounded=0;entryX=0.5;entryY=1;entryDx=0;entryDy=0;entryPerimeter=0;exitX=0.5;exitY=0.125;exitDx=0;exitDy=0;exitPerimeter=0;fontSize=18;" edge="1" parent="1" source="2RzvqMP-yP-Pnqs9nKf0-2" target="2RzvqMP-yP-Pnqs9nKf0-1">
          <mxGeometry width="50" height="50" relative="1" as="geometry">
            <mxPoint x="170" y="260" as="sourcePoint" />
            <mxPoint x="220" y="210" as="targetPoint" />
          </mxGeometry>
        </mxCell>
      </root>
    </mxGraphModel>
  </diagram>
</mxfile>
